# xmcd
#
# Track frame offsets: 
#        150
#        17362
#        30995
#        41557
#        53434
#        73308
#        98073
#        109638
#        121202
#        127659
#        141841
#        155182
#        166909
#        172717
#        188231
#        195580
#        204023
#        225201
#        239676
#        245309
#
# Disc length: 3587 seconds
#
# Revision: 5
# Processed by: cddbd v1.5.2PL0 Copyright (c) Steve Scherf et al.
# Submitted via: ExactAudioCopy v0.99pb5
#
DISCID=f10e0114
DTITLE=Various Artist - China - Viele Gesichter
DYEAR=1998
DGENRE=Folklore
TTITLE0=Thundering Dragon - Gongs Und Trommeln Der Peking-Oper
TTITLE1=Chinese Deep South Ensemble - Sanpi Wenpeng
TTITLE2=Professor Xu Pingxin - Das Lied Beim Pflanzen
TTITLE3=Dayan Ancient Music Association - Guqi
TTITLE4=Nagchu Art Troupe Aus Tibet - Rwezhe
TTITLE5=Thundering Dragon - Ochse Kämpft Gegen Tiger
TTITLE6=Ensemble Sadiyana - Hasquipicak (Dornige Blume)
TTITLE7=Dolqun Sapar Und Abuqasim Qadir - Ossaqning
TTITLE8=Gundenbiliin Yavgaan - Xel Xuur Melodie (Die Aufgehende Sonne)
TTITLE9=Pan Zhenhua - Frühling
TTITLE10=Yang Jiansheng - Liebeslied Der Achang
TTITLE11=Ein Chor Alter Männer Aus Xiaohuang In Der Provinz Guizhou - 
TTITLE11=Saure Pflaume
TTITLE12=Mu Tianyan Und Yang Zhengping - Qingge
TTITLE13=Chinese Deep South Ensemble - Unter Dem Panha-Baum
TTITLE14=Shan Yunlu - Tanz Der Yi-Leute
TTITLE15=Ein Mädchenchor Aus Dem Dorf Xiaohuang - Die Weinende Zikada
TTITLE16=Li He - Lied Des Fischers
TTITLE17=Nagchu Art Troupe Aus Tibet - Ne Cham (Viele Masken)
TTITLE18=Gundenbiliin Yavgaan - Xel Xuur Melodie (Gebet Eines Schamane
TTITLE18=n)
TTITLE19=Thundering Dragon - Unaufhaltsam Wachsender Drache Und Hochsc
TTITLE19=hnellender Tiger
EXTD=CD 3592\nPart of the Boxed set China:Time to Listen [CD 3590) Ell
EXTD=ipsisArts
EXTT0=
EXTT1=Melody to Welcome Guests
EXTT2=Professor Xu Pingxin
EXTT3=
EXTT4=Fiddle Dance
EXTT5=
EXTT6=Thorny Flower
EXTT7=
EXTT8=The Rising Sun
EXTT9=
EXTT10=
EXTT11=
EXTT12=Love Song
EXTT13=
EXTT14=
EXTT15=
EXTT16=
EXTT17=Many Masks
EXTT18=A Shaman's Prayer
EXTT19=
PLAYORDER=
